<svg preserveAspectRatio="none" width="100%" height="100%" overflow="visible" style="display: block;" viewBox="0 0 262.505 75.4824" fill="none" xmlns="http://www.w3.org/2000/svg">
<path id="Union" d="M210.377 64.5859C248.139 64.5859 262.451 75.4416 262.505 75.4824C255.71 73.4622 245.823 68.6875 214.143 68.6875C182.462 68.6875 175.666 73.646 157.271 74.1357C138.602 74.6543 131.333 67.5432 131.283 67.4941H131.222C131.176 67.5392 123.908 74.6545 105.234 74.1357C86.869 73.646 80.0428 68.6875 48.3623 68.6875C16.6821 68.6875 6.79523 73.4316 0 75.4824C0.0611239 75.4361 14.4063 64.5859 52.1279 64.5859C85.8589 64.586 85.8593 72.085 110.714 72.085C124.272 72.0849 131.189 65.3217 131.252 65.2598C131.252 65.2598 138.17 72.0849 151.791 72.085C176.646 72.085 176.646 64.586 210.377 64.5859ZM60.3945 50.2012C60.3945 50.2012 60.7316 50.4764 61.3438 51.0273C61.6498 51.2722 62.0166 51.6399 62.4756 51.9766C62.9347 52.3132 63.4859 52.7112 64.0674 53.1396C66.4855 54.7619 70.159 56.5985 74.6279 57.8535C79.0662 59.1697 84.2392 59.9348 89.4121 60.1797C91.9833 60.2715 94.5851 60.2409 97.0645 60.0879C97.6766 60.0267 98.258 59.9958 98.8701 59.9346C99.421 59.8121 100.003 59.6905 100.554 59.5986C101.135 59.5068 101.656 59.445 102.237 59.292C102.819 59.1389 103.37 58.9861 103.921 58.833C108.359 57.6087 112.093 56.3844 115.185 55.7109C116.715 55.3742 118.124 55.1902 119.317 55.0371C120.572 54.9453 121.644 54.9766 122.501 54.9766C123.388 54.9766 124.123 55.1901 124.704 55.3125C125.286 55.4655 125.715 55.6188 126.052 55.7412C126.68 56.0107 126.899 56.1925 126.908 56.2002C126.908 56.2002 126.664 56.4149 126.082 56.7822C125.776 56.9658 125.378 57.1497 124.889 57.3945C124.399 57.6394 123.786 57.8228 123.052 58.2207C122.317 58.588 121.46 58.9553 120.45 59.3838C119.409 59.8735 118.246 60.3634 116.868 60.9756C114.113 62.1693 110.594 63.7916 105.604 65.1689C104.962 65.322 104.319 65.5061 103.676 65.6592C103.033 65.8122 102.299 65.8727 101.595 65.9951C100.891 66.0869 100.187 66.1797 99.4521 66.2715C98.7482 66.3021 98.0135 66.332 97.3096 66.332C94.4936 66.332 91.6467 66.0877 88.8613 65.6592C83.2905 64.7409 77.9032 63.057 73.4648 60.8838C68.9654 58.7412 65.5369 56.0785 63.4248 53.9053C62.9046 53.3545 62.4457 52.8337 62.0479 52.4053C61.6499 51.9767 61.3738 51.5476 61.1289 51.2109C60.6699 50.5684 60.3945 50.2012 60.3945 50.2012ZM201.471 51.2109C201.226 51.517 200.951 51.9768 200.553 52.4053C200.155 52.8338 199.695 53.3543 199.175 53.9053C197.063 56.0785 193.604 58.7718 189.135 60.8838C184.696 63.0876 179.309 64.7715 173.738 65.6592C170.953 66.0876 168.107 66.332 165.291 66.332C164.556 66.3014 163.851 66.2715 163.147 66.2715C162.444 66.1797 161.709 66.0869 161.005 65.9951C160.301 65.9033 159.566 65.8122 158.924 65.6592C158.25 65.5061 157.638 65.322 156.995 65.1689C151.975 63.7915 148.455 62.1693 145.7 60.9756C144.323 60.3635 143.16 59.904 142.15 59.3838C141.14 58.9553 140.282 58.588 139.548 58.2207C138.814 57.823 138.202 57.6393 137.712 57.3945C137.222 57.1803 136.824 56.9659 136.518 56.7822C135.906 56.415 135.691 56.2002 135.691 56.2002H135.722C135.724 56.1978 135.94 55.9847 136.579 55.7412C136.916 55.5882 137.344 55.4655 137.926 55.3125C138.507 55.1595 139.273 54.9766 140.13 54.9766C141.018 54.946 142.089 54.9147 143.313 55.0371C144.477 55.1901 145.915 55.3743 147.445 55.7109C150.567 56.3843 154.272 57.6392 158.71 58.833C159.261 58.986 159.811 59.139 160.393 59.292C160.944 59.445 161.495 59.4762 162.046 59.5986C162.597 59.7211 163.148 59.8121 163.729 59.9346C164.342 59.9958 164.923 60.0267 165.535 60.0879C168.014 60.2409 170.616 60.2715 173.188 60.1797C178.36 59.9348 183.533 59.1697 187.972 57.8535C192.441 56.5985 196.114 54.7925 198.532 53.1396C199.114 52.7111 199.665 52.3133 200.124 51.9766C200.583 51.6399 200.951 51.3028 201.257 51.0273C201.862 50.5126 202.198 50.2074 202.205 50.2012C202.2 50.2076 201.956 50.5442 201.471 51.2109ZM131.283 0C131.283 0.857059 131.62 8.08122 139.762 20.1719C144.108 26.6303 142.823 31.6192 138.477 36.6084C135.844 39.6693 131.283 47.8424 131.283 64.5244C131.283 47.8424 126.753 39.6387 124.09 36.6084C119.744 31.6192 118.458 26.6608 122.805 20.1719C130.947 8.08122 131.283 0.857059 131.283 0ZM153.66 34.4385C155.129 33.8263 157.027 33.3976 159.354 34.0098C160.486 34.3159 161.711 34.959 162.721 35.9385C163.21 36.4588 163.608 36.9485 164.067 37.7441C164.404 38.4787 164.618 39.0298 164.771 39.7949C165.108 41.2642 165.016 42.8869 164.588 44.2949C164.129 45.7028 163.394 46.9271 162.537 47.9678C160.792 50.0186 158.68 51.4574 156.078 52.3145L156.262 52.2529C154.211 53.0181 152.436 52.9876 150.813 52.957C149.191 52.8958 147.722 52.6817 146.314 52.498C143.56 52.1307 141.08 51.8554 139.06 52.1309C137.039 52.3758 135.57 53.416 134.896 54.4873C134.468 54.9462 134.346 55.4666 134.132 55.7422L133.887 56.2324C133.887 56.2324 133.917 56.0486 133.979 55.7119C134.07 55.3752 134.071 54.824 134.377 54.2119C134.744 52.9264 136.152 51.1203 138.479 50.2021C140.774 49.2534 143.59 48.947 146.406 48.7021C147.814 48.5797 149.253 48.4883 150.6 48.3047C151.916 48.121 153.202 47.7843 153.967 47.3252L154.15 47.2637C155.466 46.5903 156.813 45.3967 157.608 44.2031C158.006 43.6216 158.282 43.0093 158.404 42.5195C158.527 42.0298 158.496 41.6313 158.404 41.2334C158.404 41.0804 158.252 40.8059 158.252 40.7139C158.282 40.7128 158.16 40.5298 158.099 40.4688C157.946 40.2851 157.762 40.1316 157.486 39.9785C156.935 39.7032 156.109 39.6114 155.405 39.7031C155.038 39.7031 154.732 39.8255 154.426 39.8867C154.12 39.9785 154.027 39.9485 153.844 40.0098C153.507 40.1016 153.171 40.3462 152.987 40.6826C152.589 41.3253 152.712 42.0601 152.742 42.5498C152.833 43.0321 152.834 43.3366 152.834 43.3457L152.772 43.2852C152.763 43.2873 152.517 43.3437 151.946 43.2236C151.671 43.1318 151.242 42.9786 150.813 42.6113C150.385 42.244 149.834 41.6624 149.589 40.7441C149.344 39.8565 149.406 38.6016 150.171 37.3467C150.538 36.7346 151.15 36.0614 151.701 35.6328C152.252 35.1737 152.926 34.7446 153.66 34.4385ZM103.308 33.9434C105.603 33.3313 107.501 33.7599 109.001 34.3721C109.736 34.6782 110.409 35.1073 110.96 35.5664C111.511 35.995 112.123 36.6682 112.49 37.2803C113.255 38.5352 113.316 39.7595 113.071 40.6777C112.826 41.5958 112.307 42.1776 111.848 42.5449C111.389 42.9122 110.99 43.0654 110.715 43.1572C110.148 43.2765 109.901 43.2216 109.889 43.2188L109.827 43.2793C109.827 43.2706 109.829 42.9954 109.919 42.4834C109.95 41.9937 110.072 41.2589 109.674 40.6162C109.49 40.3104 109.154 40.0353 108.817 39.9434C108.634 39.8821 108.541 39.9121 108.235 39.8203C107.96 39.7591 107.623 39.6673 107.256 39.6367C106.552 39.5755 105.726 39.6368 105.175 39.9121C104.899 40.0345 104.716 40.1881 104.562 40.4023C104.501 40.494 104.379 40.6771 104.409 40.6475C104.409 40.7093 104.256 40.9837 104.256 41.167C104.164 41.5649 104.164 41.9328 104.256 42.4531C104.378 42.9429 104.654 43.5245 105.052 44.1367C105.848 45.3304 107.164 46.5238 108.511 47.1973L108.694 47.2588C109.46 47.7179 110.745 48.0546 112.062 48.2383C113.378 48.4525 114.847 48.5133 116.255 48.6357C119.071 48.8806 121.918 49.1869 124.183 50.1357C126.509 51.0539 127.917 52.8599 128.284 54.1455C128.59 54.7577 128.591 55.3088 128.683 55.6455C128.744 55.9822 128.774 56.166 128.774 56.166C128.774 56.166 128.682 56.0125 128.529 55.6758C128.346 55.4002 128.192 54.8799 127.764 54.4209C127.09 53.3804 125.591 52.3094 123.602 52.0645C121.581 51.789 119.102 52.0643 116.347 52.4316C114.939 52.6153 113.47 52.8294 111.848 52.8906C110.225 52.9212 108.449 52.9518 106.398 52.1865L106.582 52.248C103.98 51.391 101.869 49.9521 100.124 47.9014C99.267 46.8607 98.5324 45.6671 98.0732 44.2285C97.6141 42.8205 97.5529 41.1978 97.8896 39.7285C98.0427 38.9635 98.2877 38.4428 98.5938 37.6777C99.0222 36.8821 99.4201 36.3924 99.9404 35.8721C100.951 34.862 102.175 34.2494 103.308 33.9434Z" fill="url(#paint0_linear_0_182)"/>
<defs>
<linearGradient id="paint0_linear_0_182" x1="-0.0449219" y1="68.1496" x2="205.398" y2="68.1496" gradientUnits="userSpaceOnUse">
<stop stop-color="#EFC371"/>
<stop offset="1" stop-color="#C59A49"/>
</linearGradient>
</defs>
</svg>
