<svg preserveAspectRatio="none" width="100%" height="100%" overflow="visible" style="display: block;" viewBox="0 0 31.8003 37.8325" fill="none" xmlns="http://www.w3.org/2000/svg">
<g id="G2910">
<path id="Vector" d="M0.00500562 15.2673C0.356418 24.4078 8.52485 30.4566 16.6971 29.5295V23.391C11.7511 24.2732 6.1435 21.7161 5.79209 15.1328C5.61638 11.2037 8.17715 7.84657 11.6202 6.52316C18.0242 4.05206 25.2656 9.08399 24.1179 16.1945V32.4454C24.1179 35.4025 26.544 37.8325 29.5497 37.8325H29.946V16.1982C30.2563 12.5345 29.2395 8.73631 26.8992 5.8652C29.5909 5.8652 31.8003 3.65951 31.8003 0.919238V0.0780916C24.1178 0.0780916 23.0599 -0.0976146 15.3736 0.0780916C12.9885 0.122953 11.5754 0.167826 9.27998 1.09496C3.80692 3.34549 -0.211911 9.04285 0.00865643 15.2711L0.00500562 15.2673Z" fill="var(--fill-0, white)"/>
</g>
</svg>
